<svg version="1" xmlns="http://www.w3.org/2000/svg" width="533.333" height="533.333" viewBox="0 0 400 400"><path d="M187.8 23.5c-1.8 1-3.4 1.2-5 .6-2.7-1-5.7-.1-10.1 3.3-1.8 1.3-4.2 2.7-5.4 3-1.2.4-4.6 3-7.5 5.7-5.1 4.9-5.5 5.1-11.8 5.4-6.8.3-24.2 5.5-24.8 7.4-.2.6-.8 1.1-1.3 1.1-1.4 0-4.9 3.3-4.9 4.7 0 .7-.7 1-1.5.7-1-.4-1.5 0-1.5 1.2 0 1.1-.7 4-1.7 6.6-2 5.5-.9 10.8 3.1 15.1 2.7 2.9 2.4 3.7-1.3 3.7-1.4 0-4.6.9-7 2-4.2 2-7.1 1.9-4.1 0 1.2-.8.9-1-1-1-3.4.1-10.4 5.1-10.8 7.7-.2 1.4-.8 2-1.7 1.7-1.3-.5-2.9 1.2-3 3.1-.1 2.4-3 8.5-4.1 8.5-1.5 0-2.5 3.9-1.8 6.7.4 1.5 1.1 2 2.2 1.5 1.5-.5 1.5-.4 0 1.2-2.1 2-2.3 3.6-.6 3.6 2.9 0-.5 1.3-4.1 1.5-2.2.2-5.4 1.3-7 2.4-1.6 1.2-3.7 2.1-4.6 2.1-1 0-2.3 1.6-3.3 4-.9 2.2-2.2 4-2.8 4-.6 0-1.1 1.4-1.1 3 0 1.7.4 2.6.8 1.9.4-.6 1.2-.8 1.8-.4.8.5.9 1.1.2 1.9-1.5 1.8-.3 2.7 2.5 2 1.5-.4 2.4-.2 2.4.5 0 1.8-2.9 2.5-5.7 1.2-2.2-1-2.5-.9-3 .9-.3 1.1-1.3 2-2.3 2-3.2 0-3.9 2.3-3.1 9.7 0 .6.8 1.8 1.6 2.6 2.7 2.8-2.7 4.9-8.5 3.4-1.4-.4-1.9-.4-1.2-.1 2.2 1 1.2 3-1.5 2.9-2 0-3.1.7-3.8 2.2-.5 1.3-1.3 2.3-1.7 2.3-.4 0-1.4 1.3-2.2 2.8-1.4 2.8-1.3 3.1 1.5 6.3l2.9 3.4-1.7-3.7c-1.6-3.6-1.6-3.9.1-5.7 3.6-4 15.6-8.6 15.6-6 0 .6.5.7 1 .4.6-.3 1 0 1 .8s-.9 1.7-2 2c-1.1.3-2 1.3-2 2.2 0 1.5.1 1.5 1.6.1.8-.9 1.8-1.6 2-1.6.9 0-.8 4.5-2 5.2-.8.6-.7 1.1.3 1.7 1.2.8.7 1.7-2.5 4.5-2.1 2-3.3 3.6-2.6 3.6 1 0 .9.7-.2 2.9-.9 1.6-1.2 3.2-.8 3.5.4.4-.1 1.2-1.1 1.7-.9.6-1.5 1.5-1.1 2.1.4.6 1 .5 1.5-.3.7-1.1.9-1.1.9-.1 0 .7-1.1 2.3-2.5 3.6-1.4 1.3-2.5 3.4-2.5 4.9 0 1.4-.5 2.7-1.2 2.9-.9.3-.9.6 0 1.2.8.4 1.6-.3 2.4-2.1.7-1.5 2.3-4.2 3.5-5.9 1.3-1.7 2.3-4.1 2.3-5.4 0-1.3 1.1-3.8 2.5-5.6 1.4-1.8 2.1-3.4 1.7-3.7-.4-.2-.1-.2.7 0 2.1.5 5-3.5 4.6-6.5-.5-3.6 1.3-10.4 2.6-9.7.5.4 1.2 0 1.5-.9.3-.8 1.2-1.2 1.9-1 .7.3 1.6-.4 2-1.5.3-1.2 1.1-2.1 1.6-2.1.6 0 .7-.6.3-1.3-.4-.6-.4-.9.1-.5.4.4 2-.1 3.5-1.2 1.9-1.4 3.2-3.7 4.4-8 .9-3.3 2.1-6 2.6-6 .6 0 .5-1.1-.1-2.7-.5-1.5-.6-2.9-.1-3.2 1.5-1 1.4-9.3-.1-8.9-2.3.8-5.8 7-4.7 8.3.8.9.5 1.4-.9 1.8-1.3.3-2.9-.5-4.7-2.4-1.5-1.6-2.4-2.9-2-2.9.5 0 .3-.6-.3-1.4-.9-1-.8-1.5.4-2 .8-.3 1.5-1.3 1.5-2.2 0-1 .5-1.4 1.4-1.1.8.3 2 0 2.6-.8.6-.7 1.9-1.3 2.8-1.3.9 0 2.9-.2 4.3-.6 2.6-.7 2.7-.7 3.1 5.1.3 4.1 1.2 7 3.1 9.9 2.5 3.7 2.6 4.4 1.7 9.2-1.1 5.9-5.2 14.7-7.3 15.5-2 .7-8.8 12.6-9.4 16.4-.4 2.2-1.1 3.3-2.3 3.3-.9 0-2.7 1.1-4 2.5-1.2 1.3-2.7 2.2-3.2 1.9-.5-.3-1.6.2-2.3 1.2-1.9 2.5-1.9 4 0 2.4 2.1-1.7 2.1.6 0 2.6-.8.9-1.5 2.5-1.5 3.7.1 2 .2 2 1.1.4 1.5-2.5 2.7-2.1 2.1.8-.2 1.4-.9 2.5-1.4 2.5-.6 0-.7.7-.4 1.6.4 1.2.2 1.5-.9 1-.8-.3-2.2-.9-3-1.2-.8-.3-1.5-.1-1.5.6s-.9 2.5-2.1 4.1c-2.1 3-3.4 8.9-2 8.9 1.5 0 3 5 2.5 8-.5 2-1.2 3-2.5 3-1 0-2.1.4-2.4 1-.4.6.1.7 1.2.3 1.6-.6 1.6-.5.4 1-.8 1-1.6 1.5-1.9 1.2-.3-.2-1.6.8-2.8 2.3-1.6 1.8-2.4 4-2.4 6.5 0 2.1-.5 4.7-1 5.7-.8 1.5-.7 1.8.2 1.5 1.6-.6 3.8-7.3 2.6-7.7-.9-.3 3-4.6 9.2-10.2 3.1-2.8 3.2-3 2.6-9.7-.3-3.9-.1-7.1.5-7.4.5-.4.7-1 .4-1.5-.3-.4.2-1.1 1.1-1.4 3-1.1 3.6-.6 2.9 2.4-.5 2.1.1 4.6 1.9 8.6l2.6 5.7-3 2.8c-1.6 1.6-3.5 2.6-4.2 2.4-2-.7-3.8.8-4.7 4.3-.7 2.3-.6 3.2.2 3.2.7 0 .4.7-.5 1.4-1.2.9-1.8 2.7-1.8 5.3 0 2.9-.6 4.6-2.4 6.2-1.4 1.3-2.9 2-3.4 1.7-.5-.3-1.5.1-2.2.9-1.1 1.3-1 1.4.4.9 1.2-.5 1.5-.2 1 .9-.3.9-1.5 1.7-2.7 1.9-1.2.2-2.3 1.2-2.6 2.3-.3 2-.3 2 1.7.1 2.1-1.8 2.1-1.8 1.9.4-.1 1.2-2.4 4.5-5.2 7.4-3.4 3.4-5.2 6-5.3 7.9-.1 1.5-.7 3.7-1.2 4.8-.6 1-.7 1.9-.2 1.9.5 0 .8 1 .6 2.3-.1 1.2-.3 2.5-.3 2.9-.1.5-1.3.8-2.7.8-1.4 0-4 1.2-5.8 2.6-2.9 2.5-2.9 2.6-.6 1.9 1.4-.4 2.7-1.1 3-1.5.7-1.1 6 0 6 1.2 0 .5.5.6 1 .3.6-.3 1-.1 1 .4 0 .6-.8 1.2-1.7 1.2-1 .1-2.5.3-3.3.4-.8.1-2 .3-2.6.4-.6 0-1.7 2.6-2.4 5.7-.8 3.1-2 5.8-2.7 6.1-1 .4-1.1.9-.2 1.9.9 1.1.7 1.4-.9 1.4-1.2 0-2.4.5-2.8 1.2-.5.8-.2.9.9.5.9-.3 1.9-.2 2.2.2.8 1.4-2.1 3.2-3.9 2.5-1.1-.4-1.6-.1-1.6 1.2 0 .9-.7 2.6-1.7 3.6-1.5 1.7-1.4 2 2.1 5.4 2.9 2.8 3.5 4 3 5.7-1.6 4.7-.9 10.4.7 6.1.7-1.9.7-1.9 1.5.1.4 1.1 1.5 2.4 2.3 3 1.9 1.1 8.1 1.3 8.1.2 0-.6-.7-.8-4.9-1.1-.8-.1-2.2-1.3-3.3-2.7-1.7-2.3-1.8-2.7-.4-5.4 2.1-4.1 2-5.2-.9-7.7-3.1-2.7-3.1-3.6 0-5 1.4-.6 2.5-1.7 2.5-2.3 0-.7.9-2 2-3 1.2-1 1.8-2.5 1.6-3.2-.3-.7 0-1.5.5-1.9.6-.3.8-1.7.4-3.1-.4-1.6-.2-2.2.5-1.8.5.3 1-.1 1-.9 0-1 .9-1.6 2.3-1.6 5.1 0 6.1-2 6.3-12.1.3-11.2.5-12.9 1.6-12.9.4 0 .8-.6.8-1.3 0-.8 1.2-2 2.6-2.8 2.7-1.4 4.9-5.4 3.8-7-.8-1.3 2.7-6.7 4.8-7.2 1-.3 2.2-1.5 2.6-2.7.4-1.2 1.2-2 1.7-1.9.6.1 1.3-2.2 1.8-5.2.9-6.4 3.1-11.4 5.3-12.3.9-.4 1.8-.5 2-.4.1.2-.4 3-1.2 6.3-1.8 7.9-1.8 12.5.2 15.3.9 1.3 1.4 2.4 1.3 2.6-12.3 8.6-15.8 12.3-18.4 18.9-1.6 4.4-1.7 8.3 0 13.2.5 1.6 0 2.4-2 3.5-1.5.8-4.1 3.4-5.7 5.8-8.7 12.7-.9 29.9 15.8 34.8 5.9 1.7 6.4 2.6 3.9 7.4l-1.6 3H43.7c-7.2 0-19.9-.7-28.2-1.5C7.3 343.7.4 343 .3 343c-.2 0-.3 12.8-.3 28.5V400h170.8l-2.9-8.3c-1.6-4.5-2.9-9.7-2.9-11.5 0-1.9-.8-4.2-2-5.4-2.2-2.3-2.6-3.8-1.1-3.8.5 0 1.3.9 1.6 2 .3 1.1 1.3 2 2.2 2 1.5 0 1.5-.2 0-1.8-1.6-1.8-1.7-3.7-.4-6 1.1-1.6 2.7-1.6 2.7.1 0 1.8 4.2 5.7 6.1 5.7.8 0 2 .5 2.5 1 .7.7 2 .7 3.5.2 2.9-1 10.9-.4 10.9.9 0 .5.8.9 1.9.9 1 0 2.4.7 3.1 1.5.7.9 2.1 1.3 3 1 .9-.3 2.3.1 3 1 .7.8 2 1.5 2.8 1.5 1.3 0 1.3-.2-.2-1.3-1.6-1.1-1.4-1.4 1.7-2.5 2.4-.9 5.2-1 9.8-.3 3.7.5 6.5.5 6.7 0 .6-1.5 2.2-1 2.2.6 0 .8.7 1.5 1.5 1.5 1.8 0 1.8-.5.5-2.9-.8-1.6-.5-1.8 1.8-1.5 1.5.2 1.9.1 1-.2-2.3-.7-2.3-1.3 0-3 2.3-1.8 3.5-1.7 2.8.1-.3.8.2 2.1 1 3 1.7 1.7 5.4 2 5.4.5 0-.5 2-1.5 4.5-2.1 4.6-1.2 6.9-2.9 4.7-3.7-.7-.2.2-1.4 2-2.6 1.8-1.2 4.2-3.8 5.3-5.9 1.1-2 2.3-3.7 2.8-3.7.4 0 .1 1.1-.8 2.4-.8 1.3-1.2 3.1-.9 4 .5 1.4 1 .9 2.5-2.1 1.2-2.6 1.8-3.2 1.8-1.8.1 2.3 1.3 1.3 3.5-2.9 1.1-2.1 1.2-3.3.4-4.6-.9-1.4-.6-2.5 1.3-5.1 1.3-1.9 3-4 3.9-4.7 1.3-1.2 1.3-1.3-.5-.7-1.4.4-1-.4 1.5-2.8 1.9-1.9 3.6-3.3 3.8-3.2.7.6-2.8 6.1-6.2 10-3.8 4.2-4.4 6.1-2.4 6.7 1.8.6-.3 4.8-5 10-3.8 4.2-3.9 4.6-4.5 13.4-.3 5.4-1.4 11.4-2.7 15-1.2 3.2-2.4 6.7-2.7 7.6-.5 1.7 3.5 1.8 74.1 1.8H400v-54.1l-10.2.8c-5.7.4-17.5.8-26.3.8h-16l-2.3-4.2-2.3-4.1 5.4-5.4c3.2-3.2 5.9-7 6.7-9.3 1.9-6 5.5-12.6 8.7-16.1 2.8-3 6.7-7.9 11.2-13.8l2.3-3.1-.6 4.5c-.4 2.5-1.1 4.7-1.6 4.8-.6.2-1 1.1-1 1.9 0 1.3.2 1.3 1.6.2 1.5-1.2 1.6-1.1.9 1.1-.7 2.2-.6 2.3.9 1.1 1.4-1.1 1.6-1.1 1.6.2 0 .9-.4 1.8-.9 2.1-.4.3-.7 3.1-.6 6.3.2 3.7-.2 6.6-1.1 8.1-1.3 2-1.3 2.2.3 2.2 1.4.1 1.2.4-.7 1.5-1.4.7-3.2 2.5-4 4-.7 1.4-1.9 2.4-2.6 2.1-.7-.3-1.5.2-1.8 1-.3.8-.2 1.3.2 1.2 4.6-2.2 6.2-3.3 6.2-4.2 0-.6 1-1.6 2.2-2.1 2.2-1 2.4-1.3 5.1-7.5 1.7-3.7 3-17 1.7-17-1.9 0-1.5-4.2.7-8.6 2.1-4.2 2.3-5.4 1.4-8.4-.6-1.9-2.2-4.8-3.7-6.3-3.1-3.4-2.6-4.3 1.5-2.9 1.9.7 3.1.7 3.1.2 0-1.1 5.6-.7 6.7.3 1.3 1.3 2.2.7 1.6-1-.6-1.4-.1-1.3 2.2.5 2.9 2.3 4.1 2.3 3.2-.2-.3-.8-2.9-1.9-5.7-2.5-2.8-.6-6.1-1.6-7.2-2.2-1.1-.6-3.3-1.2-5-1.5-3.7-.4-5.8-2.1-5.8-4.5 0-1.1-.7-1.9-1.6-1.9-1 0-1.4-.6-1.1-1.4.6-1.5-1.2-2.6-4.4-2.6-1.3 0-1.8-.4-1.3-1.2.5-.8 0-.9-1.7-.4-6 1.9-6.4 1.8-8.3-1.6-3-5.2-5.2-6.8-8.8-6.6-2.5.2-3.2-.1-2.9-1.2 2.1-8.3.7-17.9-3.6-24.4-2.5-3.9-2.5-3.9-1.8-18.7.4-8.2 1.1-14.9 1.5-14.9.4 0 1.5.9 2.5 2 1 1.2 2.5 1.8 3.2 1.6.7-.3 1.3-.1 1.3.4s1 1.8 2.1 2.9c1.5 1.4 2 2.8 1.6 4.7-.3 1.7.3 3.8 1.7 6 2.6 4.1 4.2 4.5 2.1.4-.8-1.6-1.3-4-1-5.2.2-1.3.1-3.9-.3-5.8-.6-2.7-1.7-4-4.7-5.6-4.2-2.2-4.4-2.7-3.1-10.3.7-4.1-3.1-12.6-7.6-17.1-1.7-1.7-2.7-3.4-2.4-3.8.4-.4 1.7.4 2.8 1.8l2 2.5-1.5-2.6c-.9-1.5-1.9-6.2-2.3-10.5-.7-8.4-2.7-13.7-6.5-16.9-2-1.7-1.9-1.5.4 1.3 3 3.8 5.1 9.7 4.5 13.2-.3 2-.8 1.2-2.1-3.2-1-3.2-3-6.9-4.6-8.5-2.4-2.4-2.7-3.3-1.9-5.3.6-1.4.8-5.2.5-8.5-.5-6.6-.1-8.9 1.5-7.9.6.4.5 1-.3 1.5-1 .6-.6.9 1.3.9 1.5 0 3.1.7 3.6 1.6.6 1.2 1.8 1.5 3.6 1.2 2.3-.5 2.6-.1 3.2 2.8.3 1.9 1 3.1 1.5 2.8 1.4-.8 1.1 4.3-.5 8-1.3 3.2-1.3 3.3 1.5 4.3 2 .8 2.9.8 3.2-.1.5-1.4 5 3.9 5.8 7 .4 1.4.1 3.2-.9 4.6-1.5 2.2-1.5 2.2.1.9 2.4-1.9 3.4-.5 1.3 1.8-1.3 1.5-1.5 2.3-.6 4.7.9 2.3 1.3 2.5 2.1 1.4 1.6-2.5 4 1.5 2.8 4.7-1 2.8.5 6.7 2.4 6 .7-.2 2 .3 3 1.1 1 .9 2.6 1.7 3.5 1.8 1.2.2.9-.5-1.1-2.2-1.5-1.3-3.5-2.4-4.3-2.4-1.1 0-1.3-1.1-.8-5.4.6-4.9.5-5.4-1.5-6.1-1.8-.5-2.1-1.4-2.1-6 0-6.7-1-9.4-5-13.5-1.7-1.7-2.8-3.5-2.5-4 .3-.5.2-2.8-.1-5.2-.5-3.3-1.8-5.4-5.5-9.1-2.6-2.7-5.3-4.6-5.8-4.3-1.5 1-5.1-3-5.2-5.7-.1-2.8-1.2-5.9-2.2-5.8-2.2.3-2.7-.1-2.7-1.9 0-2.1-4.5-5-7.9-5-1.5 0-2.3-1-3-3.8-1.2-4.2-9.1-13.7-12.2-14.7-1.1-.4-3.7-2.4-5.6-4.6-1.9-2.1-4.1-3.9-4.8-3.9-.8 0-5.2-2-10-4.5-5.5-2.9-9.4-4.4-10.6-4-1 .4-1.9.3-1.8-.2.1-1.7 2.8-7.7 2.8-6.6.1.7.6 1.3 1.1 1.3.6 0 1-1.6 1-3.7 0-2-.3-3.3-.7-3-.3.4-1.2-.2-2-1.2-1.4-2.1-8.6-7.2-11.5-8.4-1-.3-1.8-1.6-1.8-2.7s-.5-2-1.1-2c-.7 0-.9-1-.7-2.5.3-1.6.1-2.5-.7-2.5-.7 0-1.6-.7-1.9-1.6-.4-.9-.9-1.4-1.3-1.1-.3.4 0 1.4.8 2.3 1.4 1.7 4 8.6 3.5 9.1-.7.8-5.6-2.1-5.6-3.2 0-1.4-5.2-2.5-11.7-2.5-2.3 0-4.5-.5-4.9-1.1-.4-.6-1.9-.9-3.7-.5-2.3.5-5.3-.5-12.6-3.8-12.4-5.7-15.9-6.4-19.1-3.8-2.4 2-2.5 2-4.9.1-2.8-2.3-5.6-2.4-9.3-.4zm-34.1 20.1c.7-.3 1.3-.1 1.3.4 0 1.6-3.9 5-5.7 5-3.7 0-13.9 5.8-18 10.3-5.9 6.3-6.9 13.8-2.4 17.5 3.1 2.5 9.6 5.2 12.9 5.2 2.2 0 3.2.5 3.2 1.5 0 1.9 1.4 1.9 2.9.1.7-.8 2.7-1.7 4.5-2 1.9-.4 5.8-2 8.8-3.5 7.3-3.9 13.7-5.7 27.3-7.7 7.8-1.1 13-1.4 16.2-.8 2.7.4 5.6.7 6.5.6 1.8-.2 5.9 1.8 12.5 6.3 3.8 2.4 11.6 3.6 14.1 2.1.6-.4 4.5 1.6 8.5 4.5 6.1 4.2 8.3 5.2 12 5.3 4.5.1 4.6.1 5.7 4.4 1.3 5.2 3.1 8.2 8.2 13.9 2.1 2.4 3.8 4.9 3.8 5.7 0 .8.3 2.3.7 3.3.6 1.6.5 1.6-.9.5-.9-.7-2-2.7-2.3-4.3-.7-3.3-1.1-3.5-3.1-1.5-2.6 2.6-.9 11.6 2.2 11.6.8 0 1.1.6.8 1.5-.4 1 .3 1.8 2.1 2.5 1.5.6 3 .8 3.2.6.3-.3 1.6.6 3 2 1.6 1.6 3.5 2.4 5.8 2.4 3.3 0 3.4 0 2.8 3.7-.3 2.1-1.2 4.3-2 5-.9.6-1.7 2.7-1.8 4.5-.2 1.8-.8 3.2-1.4 3-.7-.1-.4.9.5 2.3s2 2.5 2.4 2.5c.4 0 1 4 1.2 8.9.4 7 1 9.6 2.7 12 1.2 1.7 1.8 3.1 1.2 3.1-.6 0-.8.7-.5 1.5.4.8 0 2.2-.7 3.1-1.1 1.3-1.1 1.5.2 1.2.8-.1 1.7.1 1.9.7.3.5-.6 1.2-1.9 1.3-1.3.2-3.2 1.2-4.3 2.2-1.7 1.6-1.8 1.9-.4 3.3 2 1.9 2 2.7.3 2.7-.8 0-2.2.9-3.2 2s-1.3 2-.7 2c.6 0 1.4-.5 1.7-1 .4-.6 1.2-.5 2.1.4 1.6 1.7 1.9 3.6.4 3.6-.5 0-1-.7-1-1.5s-.4-1.5-1-1.5c-.5 0-1 .4-1 .9s-.9 1.1-2 1.4c-2.1.5-2.9 4.7-.9 4.7.8 0 1 1.4.6 4.4-.5 3.7-.4 4.3 1 4.2 1 0 1.9.8 2.1 1.8.2 1.1 1 2.6 1.8 3.4.8.7 1.4 2.2 1.4 3.2s.5 2.2 1 2.5c1.8 1.1 1.1 2.7-.9 2-1.7-.5-1.9-.2-1.5 3 .2 2 0 3.5-.6 3.5-.5 0-1 2-1 4.4 0 2.5-.5 4.8-1 5.1-.6.4-.8 2.1-.5 3.9.5 2.6 0 4.2-2.4 7.8-3.6 5.3-4 6.9-1.1 4.3 2.7-2.5 2.5-1.1-.6 4.3-1.8 3.1-2.9 4.1-3.4 3.2-.6-.9-1.3-.4-2.4 1.9-1.8 3.4-1.6 3.9.9 1.5.9-.9 1.8-1.4 2.1-1.1.8.7-5.6 12.7-6.8 12.7-1.2 0 0-4 2-6.3.8-.9 1.2-2 .9-2.3-.8-.8-4.6 3.6-4.7 5.3 0 .7-.6 1.3-1.4 1.3-.8 0-1.8.5-2.2 1.1-.4.8 0 .9 1.5.4 1.1-.3 2.1-.3 2.1.1 0 .6-3 4.4-7.4 9.5-.8 1-2.1 4.2-3 7.3-.9 3.1-3.2 8.6-5.1 12.3-1.9 3.8-3.5 7.7-3.5 8.9 0 1.1-.5 2.5-1.2 3.2-.9.9-.9 1.2 0 1.2 1.7 0 1.5 2.7-.3 3.4-.8.3-1.5 1-1.5 1.6 0 .6.4.9.8.6.5-.3.9.2.9 1 0 1-.4 1.1-1.1.4-1.4-1.4-2.9-1.3-2 .2.4.7.3.8-.4.4-.6-.4-2-.1-3.1.5-1.5 1-1.7 1.8-1 3.6.5 1.4.5 2.2 0 1.9-.5-.3-1.4.1-2.1.9-1.6 1.9-3.1 1.9-2.4 0 .4-.8 1.3-1.5 2.1-1.5s1.1-.5.8-1c-.9-1.4-3.6-1.3-3.3.2.2.7-1.2 1.2-3.4 1.3-3.7.2-9.5 3.1-8.4 4.3 1 .9-6.6 4.1-9.8 4.2-2.4 0-2.7.2-1.6 1.5 1.7 2-.8 2.9-6.1 2.2-2.8-.4-5.5-1.9-9.4-5.2l-5.4-4.6-.7 2.5c-.5 2.3-1.1 2.6-4.5 2.4-2.2-.1-4.4-.7-5-1.5-.6-.7-1.6-1-2.1-.7-.5.3-1.7-.1-2.7-1-1-.9-2.5-1.4-3.3-1.1-1.7.7-4.3-1.9-3.3-3.4.3-.7 0-.8-.9-.5-.9.3-1.6.1-1.6-.6 0-.6-.5-.8-1-.5-.6.3-1.3-.1-1.6-.9-.3-.9-1.1-1.6-1.7-1.6-.6 0-.1 1 1.1 2.3 2.3 2.4 3 5.7 1.2 5.7-.5 0-1-.5-1-1 0-.6-1.8-2.8-3.9-4.9-2.9-2.8-4.5-5.7-6.2-11-2.1-6.4-3.9-9.1-3.9-5.9-.1 1.9-4-3.4-4-5.4 0-3.6-8.2-10.5-9.2-7.8-.2.4-.9.1-1.7-.7-1.2-1.4-1.2-1.5 0-1.1 1.5.5 3.8-1.9 3.9-4 0-.6-.4-1.2-1-1.2-.5 0-1 1-1 2.2 0 1.4-.3 1.9-1 1.2-1.6-1.6-7-12.7-7-14.4 0-.9-3.7-5.4-8.1-10.1-10.6-10.9-12.2-14.5-15.4-33.6-1.4-8.3-4.6-17.3-6.3-17.3-1.1 0-3.3 12.5-2.5 14.8.4 1.4.3 1.4-.5.3-1.2-1.7-2.7 12.1-1.9 18l.5 3.9-2.9-3.6c-3.5-4.4-2.8-1.8-9-33.4-6.2-31.3-6.5-36.9-2.8-42.6 2.4-3.6 12.4-10.2 13.6-9 .3.2-.9 1.2-2.5 2-4 2.1-5.2 4-1.5 2.4 1.5-.6 3.2-1.5 3.6-1.9.8-.7 6.7 1.7 6.7 2.8 0 .2-1 1.3-2.2 2.4l-2.3 1.8 2.3.1c1.2 0 2.2-.5 2.2-1 0-.6.5-1 1.1-1 .6 0 .9.7.5 1.5-.3.9 0 1.5.9 1.5.8 0 1.5.8 1.4 1.7 0 1.1-.3 1.3-.6.5-.2-.6-.9-1.2-1.4-1.2-.6 0-.7.4-.4 1 .3.6-.1.7-.9.4-2.4-.9-1.9 1.4.5 2.6 1.5.8 1.7 1.5 1 2.4-.6.7-1.2 2.3-1.4 3.6-.2 1.3-1.2 2.7-2.3 3.2-1.1.4-.4.5 1.9.2 2.3-.4 3.7-.2 3.7.4 0 1.5-2.1 2.7-4.5 2.5-1.6-.1-1.6-.1-.2.3 2.5.8 2.1 2.4-.5 2.4-1.4 0-1.9.3-1.1.8.6.4 1 2 .9 3.5-.3 2.3-.1 2.5 1.1 1.5 1.2-1 1.4-.7 1.1 1.8-.2 2.2.3 3.3 2.1 4.6l2.4 1.6-3.3 1.7c-2.9 1.5-3.1 1.8-1.6 3.4.9 1 1.4 2 1.2 2.2-.2.2.2 1 1 1.7 1.2 1.1 1.4 1 1.4-.3 0-.9-.4-2.5-1-3.5-.8-1.5-.6-1.7.9-1.3 2.3.6 4.9-3.3 3.3-4.9-.7-.7-.5-1.9.6-3.6 1.8-2.8 2.4-5.2 1.2-5.2-.4 0 .1-1.7 1.1-3.7 1-2.1 1.9-5.2 1.9-6.9 0-1.8.6-3.5 1.3-3.8.8-.3.7-.8-.6-1.6-2.1-1.4-1.3-3.2 1.1-2.3 1.6.6 1.6.6.1-1-1.1-1-1.6-3-1.5-5.4.1-2.3-.4-4.2-1.2-4.8-1.1-.9-1-1.8.9-5 2.5-4.2 2.6-7.3.3-11.7-1.5-2.9-1.8-7-.6-8.2.4-.4.7-1.1.7-1.4.1-.4.6-1.7 1.3-3 .7-1.2 1-3.2.7-4.2-.4-1.2-.2-2 .5-2s.8-.6 0-1.9c-1.4-2.7-1.3-3.1.7-3.1 3.6 0 10.2-10.6 10.3-16.3 0-1.5.6-4 1.4-5.5 2.3-4.7 2.6-9 1.1-17.5-.8-4.5-1.5-10.1-1.5-12.5 0-2.3-.4-4.2-.9-4.2s-.7-.9-.4-2c.6-2.3.4-2.4-3.1-1-2 .7-2.4.6-1.9-.6.3-.8.2-1.4-.3-1.3-2.8.5-3.6-.2-3-2.6.4-1.4.1-3.5-.5-4.7-.9-1.7-.9-2.3 0-2.6.6-.2 1.1-1.6 1.1-3 0-2.8 3.3-5.9 5.7-5.4.8.2 1-.3.6-1.4-.5-1.3-.2-1.5 1.5-.9 1.3.4 2.2.2 2.2-.4 0-.6-.7-1.1-1.5-1.1s-1.5-.5-1.5-1.1c0-.7 1-.9 2.5-.5s2.5.2 2.5-.4c0-.7.8-.9 2-.5 1.1.4 2 .2 2-.4 0-.6.6-1.1 1.3-1.1.8 0 2.4-.9 3.7-2 1.7-1.5 2.7-1.7 4.1-.9 1.5.7 1.7.6 1.3-.6-.5-1.1-.2-1.3 1-.9 1.2.5 1.5.2 1-1-.5-1.4-.2-1.5 2.2-.6 1.5.6 3.3.9 4.1.6zm150.5 42.7c2.7 1.1 7.8 9.5 7.8 12.8 0 .8 1.6 2.2 3.5 3.1 1.9.8 3.5 1.1 3.5.6 0-.5 1.4 0 3 1.2 3.2 2.3 4.1 4.6 1.3 3.6-1.5-.6-1.6-.5-.1 1.1.8 1 1.8 2.5 2.1 3.3.4 1.1.6 1 .6-.4.1-1.5.3-1.6 1.6-.6 1.1.9 1.3 1.6.5 2.4-.5.5-1 1.9-1 3 0 1.8-.4 1.6-3.2-1.2-1.8-1.7-5-3.8-7.2-4.7-3.6-1.5-3.7-1.7-2-3 1.7-1.3 1.7-1.6.4-2.5-.8-.5-2.5-1-3.8-1-2.1 0-2.2-.3-1.7-3.4 1.3-6.6-4.1-13.6-10.6-13.8-1.6-.1-2.9-.6-2.9-1.3 0-1.4 3.9-1 8.2.8zm10.8 3.1c0 .3-.4.8-1 1.1-.5.3-1 .1-1-.4 0-.6.5-1.1 1-1.1.6 0 1 .2 1 .4zM90.3 106.7c-.6 6.1-2.3 7.9-2.3 2.4 0-2.8 1.9-9.5 2.5-8.9.2.2.1 3.1-.2 6.5zM79 122.9c0 .5-.7 1.1-1.4 1.4-1 .4-1.3.1-.9-.9.6-1.5 2.3-1.9 2.3-.5zm269.2 11.3c-.7.7-1.2.8-1.2.2 0-.6.3-1.4.7-1.7.3-.4.9-.5 1.2-.2.2.3-.1 1.1-.7 1.7zM73 146.1c0 .5-.5.7-1 .4-.9-.6-2.7 4.9-2.2 6.7.1.5-.6.8-1.6.8s-2.6 1.3-3.5 3c-1 1.6-2.5 3-3.3 3-.8 0-1.4.4-1.4.9s-.8 1.2-1.7 1.5c-1.5.6-1.5.4.1-1.3 1.5-1.7 1.6-2.3.6-3.6-.7-.8-1-2.4-.7-3.5.3-1.1.1-2.2-.4-2.5-1.5-1 .3-3.7 3.5-5.1 3.7-1.6 11.6-1.8 11.6-.3zM42.5 165c-.3.5-1.1 1-1.6 1-.6 0-.7-.5-.4-1 .3-.6 1.1-1 1.6-1 .6 0 .7.4.4 1zm273.4 12.5c2.2 1.1 4 3.3 5.4 6.3 1.9 4.1 2.2 6.4 2.1 18.7 0 7.7-.8 20-1.7 27.4-1.8 14.3-3.5 18.7-9.5 24.4-3 2.9-10 5.9-11.5 5-.6-.3-.3-5.8.3-5.8.1 0 .3-1.1.5-2.5.5-3-2.8-7.5-4.7-6.4-.7.5-.5-.4.5-1.9 1.7-2.6 1.7-2.9 0-5.8-1.1-1.9-1.4-3.2-.8-3.7.6-.4 1.6-2 2.3-3.5 1.1-2.7 1.3-2.7 3.7-1.1 2.3 1.5 2.5 1.5 2.5 0 0-.9.5-1.6 1-1.6.6 0 1-.4 1-1s-1-.5-2.6.2c-2.1 1-2.7.9-3.5-.3-1.3-2.1-1.1-3.2.5-2.6.8.3 2.4-.3 3.6-1.3 1.7-1.5 1.9-2.3 1.1-3.7-.6-1-1.1-1.5-1.1-1.1 0 1.8-.5 2.4-2.8 3.5-2.9 1.6-5.2 1.7-5.2.3 0-.6.4-1 1-1 .5 0 .7-.7.3-1.6-.5-1.3-.8-1.3-1.5-.2-.8 1-.9 1-.6-.1.2-.8 1.3-1.5 2.4-1.6 1.1-.1 3-.8 4.3-1.7 1.9-1.3 2-1.6.6-2.2-.9-.3-2.5-.1-3.6.4-3 1.7-2.2-.4 1.2-2.9 1.7-1.3 2.8-2.5 2.5-2.8-.3-.4-1.4.1-2.4 1-1.7 1.6-1.8 1.5-1.6-1.7.2-2.8 0-3.3-1.4-2.9-1.2.3-1.7-.3-1.8-2.1-.2-2 .3-2.6 1.7-2.6 1.1 0 2.3-.8 2.6-1.8.4-.9 1.1-2 1.7-2.4.6-.4.4-1.4-.8-2.7-2.2-2.4-1.5-5.1 1.4-5.1 2.1 0 2.1 0 .1-2.1-1.1-1.2-2.6-1.9-3.4-1.6-1.1.4-1.3 0-1-1.4.3-1 .8-1.9 1.2-1.9.4 0 1.6-.7 2.7-1.5 1.8-1.4 1.7-1.5-1.1-.8-2.8.6-2.9.5-1.5-1.2 1.2-1.4 2.5-1.6 7.1-1.2 3 .3 7 1.2 8.8 2.2zM104 177c0 .5-.2 1-.4 1-.3 0-.8-.5-1.1-1-.3-.6-.1-1 .4-1 .6 0 1.1.4 1.1 1zm242.5 7c-.3.5-1.2 1-1.8 1-.7 0-.6-.4.3-1 1.9-1.2 2.3-1.2 1.5 0zm-54.5 2.4c0 .2-.7.7-1.6 1-.8.3-1.2.2-.9-.4.6-1 2.5-1.4 2.5-.6zm-181.8 6c.1 1.1-.2 2.1-.8 2.3-1.3.4-3.7-5.4-2.8-6.9.7-1.1 3.1 2 3.6 4.6zm186.2-3.4c.6 0 1.2.9 1.2 2 0 1.6-.5 1.9-2.1 1.4-2-.7-3.5-2.2-3.5-3.8 0-.4.7-.5 1.6-.2.9.3 2.1.6 2.8.6zM69 196.9c-1.1 2.3-2.4 4.1-2.8 4.1-1.1 0-1.1-5.4 0-6.7.5-.7.6-1.8.2-2.4-.5-.9-.2-1 .9-.6.9.3 2 .1 2.4-.6 1.8-2.9 1.3 2.4-.7 6.2zm36-3.3c0 .8-.4 1.2-1 .9-.5-.3-1-1-1-1.6 0-.5.5-.9 1-.9.6 0 1 .7 1 1.6zm195 2.6c0 1.3-2.3.5-2.8-1-.2-.7.2-1 1.2-.6.9.3 1.6 1.1 1.6 1.6zm53.6 1.5c-.7.7-2.6-.7-2.6-1.9 0-.6.6-.6 1.5.2.9.7 1.3 1.5 1.1 1.7zM294 202c0 .5-.2 1-.4 1-.3 0-.8-.5-1.1-1-.3-.6-.1-1 .4-1 .6 0 1.1.4 1.1 1zm-188 5.5c-1.3 1.4-2.6 2.2-2.9 1.9-.3-.3.1-.9.9-1.4.8-.6 1.1-1 .5-1-1.2 0 1.6-2 2.9-2 .5 0-.1 1.1-1.4 2.5zm187-1.5c0 .5-1.1 1.2-2.5 1.6-2.3.6-3 1.6-2.5 3.9.1.5-.8.1-1.9-.9l-2.1-1.9 3.3-1.8c3.6-2 5.7-2.4 5.7-.9zm-185.3 4.2c-.3.8-.6.5-.6-.6-.1-1.1.2-1.7.5-1.3.3.3.4 1.2.1 1.9zm191.2 14.1c1.1 1.4.5 2.7-1.2 2.7-.5 0-.7-.6-.4-1.4.3-.8.1-1.7-.6-2-.8-.3-.8-.5-.1-.5.6-.1 1.7.5 2.3 1.2zm.6 22.6c.3.6-.3.9-1.4.8-1.1 0-1.7-.5-1.5-.9.7-1.1 2.2-1 2.9.1zm-201.1 2.6c-.4.8-.8 1.5-1 1.5-.2 0-.4-.7-.4-1.5s.4-1.5 1-1.5c.5 0 .7.7.4 1.5zm199.9 6.1c-.4 1-.9 1.2-1.5.6-1.2-1.2-.1-3.5 1.2-2.7.5.3.6 1.3.3 2.1zm-190.6 1.6c-.3.8-.6.5-.6-.6-.1-1.1.2-1.7.5-1.3.3.3.4 1.2.1 1.9zM299.4 268c.4 3.1.3 4-.4 3-.5-.8-1-3-1-4.9 0-4.5.6-3.7 1.4 1.9zm69.6-1c0 .3-1.8.6-4 .7-4.5.1-5.1-.7-1.7-2.3 2-.9 5.7.1 5.7 1.6zm-272.5.8c-.3.3-1.1 0-1.8-.7-.9-1-.8-1.1.6-.5 1 .3 1.5.9 1.2 1.2zm-1.4 5.5c-.8.8-1.1.3-1.1-1.9.1-2.5.2-2.7 1.1-1.1.8 1.4.8 2.2 0 3zm206.6 3.9c-.3.8-.6.5-.6-.6-.1-1.1.2-1.7.5-1.3.3.3.4 1.2.1 1.9zM97 278c0 .5-.2 1-.4 1-.3 0-.8-.5-1.1-1-.3-.6-.1-1 .4-1 .6 0 1.1.4 1.1 1zm27.8 2.5c-.3.3-.9-.2-1.2-1.2-.6-1.4-.5-1.5.5-.6.7.7 1 1.5.7 1.8zM98.3 285c-.6.7-2.3-2.3-2.3-4 0-.8.6-.4 1.3 1 .8 1.4 1.2 2.7 1 3zm203.8.2c.2 2-.1 4.1-.5 4.5-.5.4-.6.3-.3-.4.4-.6 0-1.9-.9-2.7-.8-.9-1.1-1.6-.5-1.6.6 0 1.1-1 1.1-2.2 0-3.3.8-1.7 1.1 2.4zm-205 3.1c-1 .9-1.1.8-.5-.6.3-1 .9-1.5 1.2-1.2.3.3 0 1.1-.7 1.8zm282.9 1.2c0 .8-.7 1.5-1.6 1.5-1.4 0-1.4-.3-.4-1.5.7-.8 1.4-1.5 1.6-1.5.2 0 .4.7.4 1.5zm-114.5 1.4c.3.5.1 1.2-.5 1.6-.5.3-1-.1-1-.9 0-1.8.6-2.1 1.5-.7zm-3.8 2.3c-.3.8-.6.5-.6-.6-.1-1.1.2-1.7.5-1.3.3.3.4 1.2.1 1.9zm38.8 3.9c-2.4 5.3-2.9 4.3-.8-1.5 1-2.6 1.9-4.2 2.1-3.6.3.7-.4 2.9-1.3 5.1zm-203.8 2.6c-.3 1-.5.4-.5-1.2 0-1.7.2-2.4.5-1.8.2.7.2 2.1 0 3zm167.3 2.2c0 1.1-.7 2.6-1.5 3.5-2 2-3.6 6.3-2.9 8 .3.8.1 2.3-.5 3.3-.9 1.5-1 1.3-.5-1 .4-1.7.2-2.7-.5-2.7-.6 0-1.1.4-1.1 1 0 .5-.4 1-1 1-1.5 0-1.2-2.6.4-4 .8-.6 1.2-1.8.9-2.6-.3-1 .2-1.7 1.4-2 1-.3 2.4-1.9 3-3.5 1.3-3.3 2.3-3.8 2.3-1zm-163.8 3.2c.5.3.3.9-.6 1.2-1.2.5-1.6 0-1.5-2.1 0-1.6.3-2.1.6-1.2.3.8 1 1.8 1.5 2.1zm197.8-1.6c0 .9-1.1 2.6-2.5 3.9-1.5 1.4-2.3 3-1.9 3.9.3 1-.2 2-1.5 2.7-1.2.6-2.1 1.7-2.1 2.5 0 .7-.4 1.6-.9 1.9-1.6 1 0-3.2 1.9-4.9 1-.9 1.7-2.2 1.4-2.9-.3-.7.7-2.3 2.1-3.6 1.4-1.3 2.5-2.9 2.5-3.7 0-.7.2-1.3.5-1.3s.5.7.5 1.5zm-154 3c1.1 1.3 1 1.4-.4.9-.9-.3-1.6-1-1.6-1.5 0-1.3.6-1.1 2 .6zm-42 1.6c0 .5.4.7 1 .4.6-.3.7.1.4 1-.4.9-.2 1.5.4 1.3.5-.2.9 0 .9.4-.1.4.7 1.4 1.8 2.2 1.1.9 1.5 1.6.9 1.6-1 0-7.4-6.4-7.4-7.5 0-.3.5-.5 1-.5.6 0 1 .5 1 1.1zm179-.7c0 .2-.8 1-1.7 1.7-1.6 1.3-1.7 1.2-.4-.4 1.3-1.6 2.1-2.1 2.1-1.3zm.7 3.8c-.3.8-.6.5-.6-.6-.1-1.1.2-1.7.5-1.3.3.3.4 1.2.1 1.9zm-20 1c-.3.8-.6.5-.6-.6-.1-1.1.2-1.7.5-1.3.3.3.4 1.2.1 1.9zm29.3-.8c0 .2-.8 1-1.7 1.7-1.6 1.3-1.7 1.2-.4-.4 1.3-1.6 2.1-2.1 2.1-1.3zm-142.9 4.3c1.3 1.6 1.2 1.7-.3.4-1.7-1.3-2.2-2.1-1.4-2.1.2 0 1 .8 1.7 1.7zm-32.7 6.2c-.2.3-1.2-.3-2.2-1.3-1.6-1.7-1.6-1.8.5-.5 1.2.7 2 1.5 1.7 1.8zm169.3 2.9c-2.1 2-3.5 2.9-3.2 2 .4-.9 1.3-1.9 2.2-2.2.8-.4 1.3-1.3 1-2.1-.4-.9-.1-1.2.9-.8.7.3 1.4-.1 1.4-.8 0-.7.3-.9.7-.5.4.4-1 2.3-3 4.4zm-164.7.4c0 .9.4.8 1-.2.8-1.3 1-1.2 1 .2 0 2.2-1.3 2.3-3 .3-.9-1-.9-1.5-.1-1.5.6 0 1.1.6 1.1 1.2zm142-.8c0 .3-.4.8-1 1.1-.5.3-1 .1-1-.4 0-.6.5-1.1 1-1.1.6 0 1 .2 1 .4zm17.5 4.6c-.3.5-1.1 1-1.6 1-.6 0-.7-.5-.4-1 .3-.6 1.1-1 1.6-1 .6 0 .7.4.4 1zm-155.6 5.4c-.1 2-.1 2.1-.6.1-.3-1.1-.9-2.4-1.4-3-.5-.5-.9-1.4-.9-2 0-.5.7-.1 1.5.9.8 1.1 1.4 2.9 1.4 4zm9.5-2.8c.3.8.2 1.2-.4.9-.6-.3-1-1-1-1.6 0-1.4.7-1.1 1.4.7zm123 3.2c.3.5-.1.9-.9.9s-1.2-.4-.9-.9c.3-.4.7-.8.9-.8.2 0 .6.4.9.8zm13.1 1.2c.3.6-.1.7-.9.4-1.8-.7-2.1-1.4-.7-1.4.6 0 1.3.4 1.6 1zm-142.2 5.9c.2 1-.1 1.8-.8 1.8-.7 0-1-.8-.7-1.9.2-1-.2-2-1.2-2.4-.9-.3-1.6-1.1-1.6-1.7 0-1.5 3.7 2.1 4.3 4.2zm42.7-3.4c1.1 1.3 1 1.4-.4.9-.9-.3-1.6-1-1.6-1.5 0-1.3.6-1.1 2 .6zm69 3.5c0 .5-.5 1-1.1 1-.5 0-.7-.5-.4-1 .3-.6.8-1 1.1-1 .2 0 .4.4.4 1zm-103.4 6.7c3.3 3.4 3.4 4.5.2 1.6-2.3-2.1-2.3-.7.2 5.9 1.4 3.8 1.5 4.7.4 3.3-.8-1.1-2-3.9-2.6-6.3-.6-2.4-1.6-4.1-2.2-3.9-.6.2-1.6-.2-2.3-.9-1.7-1.6-1.7-2.9 0-1.7 2 1.6 4.7 2.3 4.7 1.2 0-.5-1.1-1.4-2.5-1.9-2.8-1.1-3.5-2.3-.7-1.3.9.3 3.1 2.1 4.8 4zm14.9-3.7c.3.5.1 1-.4 1-.6 0-1.1-.5-1.1-1 0-.6.2-1 .4-1 .3 0 .8.4 1.1 1zm75.5 4.5c0 .4-1.5.4-3.2.1-1.8-.4-4.3-.7-5.6-.8-1.6 0-2.2-.5-2-1.7.4-2 4.5-1.6 7.1.6.9.9 1.7 1.1 1.7.5 0-.6-.4-1.4-1-1.7-.5-.3-1-1.1-1-1.7 0-.6.9.1 2 1.5s2 2.8 2 3.2zm27-4.1c0 .3-.4.8-1 1.1-.5.3-1 .1-1-.4 0-.6.5-1.1 1-1.1.6 0 1 .2 1 .4zm-8.8 9.8c-.7.7-1.2.8-1.2.2 0-1.4 1.2-2.6 1.9-1.9.2.3-.1 1.1-.7 1.7zm-4.5.4c-.3.3-1.2.4-1.9.1-.8-.3-.5-.6.6-.6 1.1-.1 1.7.2 1.3.5zm14.3.2c0 .9-7 4.5-7.6 4-.6-.7 1.1-2.4 3.6-3.5 3.1-1.4 4-1.5 4-.5zM146.5 362c2.2.7 3.4 1.5 2.8 1.7-1.8.6-8.6-2.9-9.1-4.7-.3-1.3-.1-1.2 1 .1.7.9 3.1 2.2 5.3 2.9zm0-2c.3.6-.1.7-.9.4-1.8-.7-2.1-1.4-.7-1.4.6 0 1.3.4 1.6 1zm91.5.7c-.8.3-2.2 1.1-3 1.7-1.3 1-1.3.9-.1-.7.7-.9 2.1-1.7 3-1.6 1.3 0 1.4.1.1.6zm-86.5 1.3c.3.6-.1.7-.9.4-1.8-.7-2.1-1.4-.7-1.4.6 0 1.3.4 1.6 1zm13.5 1.2c1.2.8 1.1.8-.3.4-1-.3-2.7-.6-3.8-.6-1 0-1.9-.5-1.9-1.1 0-1.1 3.3-.4 6 1.3zm-7.5.8c.3.5 1.9 1 3.6 1 1.6 0 2.9.4 2.9 1 0 .5-.6.9-1.2.7-.7-.1-1.2.2-1.1.8.2 1.5-2.5 3.7-3.2 2.5-.3-.6-.1-1 .4-1 .6 0 1.1-.7 1.1-1.5s-.7-1.5-1.5-1.5-1.5-.4-1.5-.9-.8-1.2-1.7-1.4c-1.6-.4-1.6-.5-.1-.6.9 0 2 .3 2.3.9zm59.7 1.4c1 .7 1.5 1.6 1.2 1.9-.7.7-4.4-1.4-4.4-2.5 0-1.2 1.3-.9 3.2.6zm-35 2.1c1.6 3.5.4 4.1-2.8 1.6-1.5-1.1-3.3-2.1-4.1-2.1-.8 0-1.1-.5-.8-1 .3-.6 2-1 3.6-1 2.2 0 3.2.7 4.1 2.5zm-31.7 4.5c.3.6-.1.7-.9.4-1.8-.7-2.1-1.4-.7-1.4.6 0 1.3.4 1.6 1zm9.1.3c.3.2-1.3.5-3.6.5-2.2 0-3.8-.3-3.5-.8.6-.9 6.1-.7 7.1.3z"/><path d="M190.8 72.7c.6.2 1.8.2 2.5 0 .6-.3.1-.5-1.3-.5-1.4 0-1.9.2-1.2.5zm-6 1c.7.3 1.6.2 1.9-.1.4-.3-.2-.6-1.3-.5-1.1 0-1.4.3-.6.6zM171.5 76c-1.3.5-1.4.9-.5.9.8 0 2.4-.4 3.5-.9 1.3-.5 1.4-.9.5-.9-.8 0-2.4.4-3.5.9zM154 162.1c0 .5.5.7 1 .4.6-.3 1-.8 1-1.1 0-.2-.4-.4-1-.4-.5 0-1 .5-1 1.1zm3-.1c0 .5.5 1 1 1 .6 0 1-.5 1-1 0-.6-.4-1-1-1-.5 0-1 .4-1 1zm6.1-.1c-.8.5-.9 1.1-.3 1.5.5.3 1.2-.1 1.6-.9.6-1.7.6-1.8-1.3-.6zm-15.5 2.5c.6 1.5.4 1.7-.6 1.1-.9-.6-1.1-.4-.5.4.5.9 1 1 1.8.2s.7-1.4-.2-2.4c-1-1-1.1-.8-.5.7zm3-.1c.3 1 .9 1.5 1.2 1.2.3-.3 0-1.1-.7-1.8-1-.9-1.1-.8-.5.6zm16.9-.3c-.3.5-.1 1 .4 1 .6 0 1.1-.5 1.1-1 0-.6-.2-1-.4-1-.3 0-.8.4-1.1 1zm66.6.6c0 1.1.3 1.4.6.6.3-.7.2-1.6-.1-1.9-.3-.4-.6.2-.5 1.3zm8.9-.5c0 .5.5.7 1 .4.6-.3 1-.8 1-1.1 0-.2-.4-.4-1-.4-.5 0-1 .5-1 1.1zm3.5-.1c-.3.5-.1 1 .4 1 .6 0 1.1-.5 1.1-1 0-.6-.2-1-.4-1-.3 0-.8.4-1.1 1zm-9.5 1.3c0 1 .8 1.7 1.8 1.7.9 0 1.3-.4.7-.8-.5-.4-1.3-1.1-1.7-1.6-.5-.5-.8-.2-.8.7zm16.1.3c0 1.1.3 1.4.6.6.3-.7.2-1.6-.1-1.9-.3-.4-.6.2-.5 1.3zM137 167c0 .5.5 1 1.1 1 .5 0 .7-.5.4-1-.3-.6-.8-1-1.1-1-.2 0-.4.4-.4 1zm6.4.5c.3 2.3 1.2 2.6 1.3.5.1-1.1-.2-2-.7-2-.4 0-.7.7-.6 1.5zm14.6-.6c0 .6.4 1.3 1 1.6.6.3.7-.1.4-.9-.7-1.8-1.4-2.1-1.4-.7zm63.5.1c.3.5.8 1 1.1 1 .2 0 .4-.5.4-1 0-.6-.5-1-1.1-1-.5 0-.7.4-.4 1zm5.6-.3c-.1 1.7 1.6 2.5 2.5 1.2.4-.7.3-.9-.4-.5-.5.3-1.3 0-1.5-.6-.4-.9-.6-1-.6-.1zm-75.6 2.3c-.3.6.1.7.9.4 1.8-.7 2.1-1.4.7-1.4-.6 0-1.3.4-1.6 1zm97.6.7c.7 1.2 1.5 2 1.8 1.7.3-.2-.3-1.2-1.3-2.2-1.7-1.6-1.8-1.6-.5.5zm-93.1.8c0 .8.4 1.5 1 1.5.5 0 .7-.7.4-1.5-.4-.8-.8-1.5-1-1.5-.2 0-.4.7-.4 1.5zm73.2 1.5c0 1.4.2 1.9.5 1.2.2-.6.2-1.8 0-2.5-.3-.6-.5-.1-.5 1.3zm-90.2 1c0 .5.5 1 1.1 1 .5 0 .7-.5.4-1-.3-.6-.8-1-1.1-1-.2 0-.4.4-.4 1zm122 0c-1.1.8-.9.9 1.3.8 1.5-.1 2.7-.6 2.7-1 0-1.1-2.2-1-4 .2zm-29.5 1.1c-.4.6-.5 1.2-.2 1.5.2.3.7-.2 1-1.1.7-1.7.1-2-.8-.4zm8.5.3c0 .8.4 1.7.9 2 .5.4.7-.3.4-1.4-.6-2.3-1.3-2.6-1.3-.6zm5-.4c0 .5.5 1 1.1 1 .5 0 .7-.5.4-1-.3-.6-.8-1-1.1-1-.2 0-.4.4-.4 1zm-123.5 2c-.3.6.1.7.9.4 1.8-.7 2.1-1.4.7-1.4-.6 0-1.3.4-1.6 1zm6.7 1c-.7 1.1-.8 2-.3 2 .9 0 2.4-3 1.8-3.6-.1-.2-.8.6-1.5 1.6zm13.9-.4c0 1.1.3 1.4.6.6.3-.7.2-1.6-.1-1.9-.3-.4-.6.2-.5 1.3zm6.4-.6c-.3.6.1.7.9.4 1.8-.7 2.1-1.4.7-1.4-.6 0-1.3.4-1.6 1zm107.7-.6c.2.1 1 .7 1.9 1.4 1.4 1 1.8 1 2.2-.1.4-1-.2-1.5-1.9-1.5-1.4 0-2.4.1-2.2.2zm-118.2 2c0 .2.8 1 1.8 1.7 1.5 1.3 1.6 1.2.3-.4s-2.1-2.1-2.1-1.3zm110.5.6c.3.5.8 1 1.1 1 .2 0 .4-.5.4-1 0-.6-.5-1-1.1-1-.5 0-.7.4-.4 1zm18.1 4.6c1.8 2.6 2.8 2.7 1.8.1-.3-.8-1.2-1.8-2-2.1-1.1-.4-1.1 0 .2 2zm-146.9 4.6c.7 4.6 1.3 4.8 1.3.5 0-2.1-.4-3.7-.9-3.7s-.7 1.5-.4 3.2zm-21.9 6.5c.7.3 1.6.2 1.9-.1.4-.3-.2-.6-1.3-.5-1.1 0-1.4.3-.6.6zm52.9 1.1c-1 1-1.7 2.9-1.7 4.1 0 2.1.4 2.2 5.7 1.9 4.7-.2 5.8-.7 6.1-2.1.9-4.7-6.8-7.6-10.1-3.9zm8.3 2.3c0 2.5-3.3 2.2-3.8-.4-.2-1.2.3-1.7 1.7-1.7 1.5 0 2.1.6 2.1 2.1zm68.2-2.1c-.6 1.1-1.2 2.9-1.2 4 0 1.8.7 2 5.4 2 6.2 0 7.7-1.7 5.1-5.6-2-3.1-7.4-3.3-9.3-.4zm8.8 2.1c0 2.5-3.3 2.2-3.8-.4-.2-1.2.3-1.7 1.7-1.7 1.5 0 2.1.6 2.1 2.1zM100.5 215c.3.5 1 1 1.6 1 .5 0 .9-.5.9-1 0-.6-.7-1-1.6-1-.8 0-1.2.4-.9 1zm51.2 94c.6 3.2 1.8 4.9 3.5 5 1 0-.2-3.3-2.2-6l-2-2.5.7 3.5zM318 108c0 .5.5 1 1.1 1 .5 0 .7-.5.4-1-.3-.6-.8-1-1.1-1-.2 0-.4.4-.4 1zm3 1.4c0 .2.8 1 1.8 1.7 1.5 1.3 1.6 1.2.3-.4s-2.1-2.1-2.1-1.3zM306.5 198c-.4.6-1.6.8-2.7.4-1.4-.4-1.8-.2-1.4.5 1 1.6 4.3 1.3 5-.4.6-1.7 0-2-.9-.5zm43.5-38.9c0 .5.5.7 1 .4.6-.3 1-.8 1-1.1 0-.2-.4-.4-1-.4-.5 0-1 .5-1 1.1zm18 18.8c0 1.7.5 3.1 1 3.1.6 0 1-1.1 1-2.4 0-1.4-.4-2.8-1-3.1-.6-.4-1 .7-1 2.4zm-333.4 5c-1.1.4-1.5 1-.9 1.4.5.3 1.9 0 2.9-.8 2-1.5 1.1-1.8-2-.6zm335.1.8c-.4.3-.7 1.1-.7 1.7 0 .6.5.5 1.2-.2.6-.6.9-1.4.7-1.7-.3-.3-.9-.2-1.2.2zM32.5 187c-.3.5-.1 1 .4 1 .6 0 1.1-.5 1.1-1 0-.6-.2-1-.4-1-.3 0-.8.4-1.1 1zm7.3 20.7c.7.3 1.6.2 1.9-.1.4-.3-.2-.6-1.3-.5-1.1 0-1.4.3-.6.6zm317.8 6.8c-.3.8-.1 1.5.4 1.5.6 0 1-.7 1-1.5s-.2-1.5-.4-1.5-.6.7-1 1.5zM40.4 250.2c-1.2 1.8-1.4 5.9-.3 5.3.5-.4.9-1.4.9-2.4 0-.9.5-2.2 1.2-2.9.9-.9.9-1.2.1-1.2-.7 0-1.5.5-1.9 1.2zM16.7 297c-.3 1.1-.1 2 .4 2s.9-.6.9-1.4c0-.8.6-1.7 1.3-1.9.7-.4.6-.6-.4-.6-.9-.1-1.9.8-2.2 1.9zm15 44.7c.6 1.5 1.3 1.6 3.1.4 1-.6.7-1-1.1-1.3-1.8-.4-2.4-.1-2 .9zm222.4 25.5c-1.4 2.3-1.4 2.3.8.4 2.2-2 2.5-2.6 1.3-2.6-.4 0-1.3 1-2.1 2.2z"/></svg>